<?xml version="1.0" standalone="no"?>
<!DOCTYPE svg PUBLIC "-//W3C//DTD SVG 20010904//EN"
 "http://www.w3.org/TR/2001/REC-SVG-20010904/DTD/svg10.dtd">
<svg version="1.0" xmlns="http://www.w3.org/2000/svg"
 width="700.000000pt" height="700.000000pt" viewBox="0 0 700.000000 700.000000"
 preserveAspectRatio="xMidYMid meet">
<metadata>
Created by potrace 1.14, written by Peter Selinger 2001-2017
</metadata>
<g transform="translate(0.000000,700.000000) scale(0.100000,-0.100000)"
fill="#000000" stroke="none">
<path d="M3278 6996 c-1 -2 -42 -6 -89 -10 -47 -4 -95 -8 -105 -10 -10 -2 -46
-7 -79 -11 -32 -4 -68 -9 -80 -11 -11 -2 -45 -8 -75 -14 -83 -15 -89 -16 -180
-40 -47 -12 -94 -24 -106 -26 -91 -17 -415 -140 -579 -220 -719 -348 -1292
-920 -1636 -1631 -32 -68 -59 -125 -59 -128 0 -3 -9 -24 -20 -48 -103 -222
-221 -668 -246 -932 -2 -22 -7 -76 -11 -120 -15 -153 -8 -601 11 -702 2 -10 7
-45 10 -78 4 -33 9 -67 11 -75 3 -8 7 -31 9 -50 10 -76 60 -282 103 -420 236
-766 730 -1426 1408 -1880 365 -245 813 -431 1240 -516 11 -2 31 -6 45 -9 14
-3 41 -7 60 -10 19 -3 46 -7 59 -10 23 -4 87 -13 156 -20 84 -10 253 -18 360
-18 119 -1 373 11 384 17 3 2 33 7 66 10 125 14 122 14 300 50 240 50 558 160
789 273 l110 54 -1035 1035 -1034 1034 -3 -800 -2 -800 -437 2 -437 3 -1 2610
c-1 1436 1 2615 2 2620 2 7 166 10 506 10 497 -2 597 -6 727 -30 14 -3 41 -7
60 -10 203 -33 493 -145 705 -273 188 -113 418 -309 542 -462 15 -19 36 -44
46 -55 37 -39 186 -271 230 -357 101 -196 175 -413 208 -613 5 -33 12 -71 14
-84 19 -108 25 -365 12 -506 -30 -321 -142 -655 -310 -930 -30 -49 -146 -215
-157 -225 -3 -3 -30 -34 -60 -69 -61 -72 -93 -105 -168 -174 l-52 -48 685
-686 686 -685 118 120 c146 148 269 295 384 458 48 68 87 126 87 129 0 2 13
23 29 47 67 102 176 314 256 503 81 189 181 541 211 745 3 19 7 42 9 50 2 8 7
40 10 70 3 30 8 69 10 85 22 171 23 617 1 755 -3 14 -7 48 -10 75 -3 28 -8 59
-10 70 -2 11 -11 63 -20 115 -9 52 -21 113 -27 135 -5 22 -12 51 -15 65 -3 14
-19 72 -35 130 -168 577 -467 1082 -888 1500 -140 139 -225 216 -340 304 -76
59 -306 216 -316 216 -2 0 -30 16 -61 36 -31 20 -118 67 -193 104 -365 183
-773 305 -1156 346 -27 3 -63 8 -80 10 -34 6 -541 14 -547 10z"/>
<path d="M3060 3940 l0 -1313 93 7 c94 6 101 7 197 27 142 30 323 109 459 202
161 110 331 307 425 492 48 96 102 262 120 370 18 114 18 326 0 430 -73 414
-323 756 -699 955 -71 37 -271 106 -335 115 -24 4 -47 8 -51 10 -3 2 -51 7
-107 11 l-102 7 0 -1313z"/>
</g>
</svg>
