<svg version="1.1" id="Layer_1" xmlns="http://www.w3.org/2000/svg" x="0" y="0" viewBox="0 0 330 125" xml:space="preserve"><style>.st0{fill:#ae591e}.st2{fill:#c7a05c}</style><path class="st0" d="M167.3 11.7c-1.2-1.7-.9-3.1.3-3.5-1.6-2-4.3-.9-4.6.9-.4 2.6 1.4 4.5 1 4.9-.7.5-8.5.4-7.8-4.9-1.2-.2-2.2-1-2.5-2.5-.3-1.4.8-2.4.8-2.4-5.5-.4-8.8 6-4.9 10.5 1.4 1.6 5.5 3.2 9.2 4.2 2.8.8 6 1.9 7.1 4.4.9 2.5.2 6.7-3.9 7.4h-.3c7.7.3 8.4-7.1 6.4-11.4.9.7 2.7.9 3.4-.5 1.5-2.8-2.6-5-4.2-7.1M41.6 107.9c-.4 0-.6.2-.6.6v15.6c0 .4.2.6.6.6h2.2c.4 0 .6-.2.6-.6v-5.5c0-.2.1-.3.3-.3h5.8c.4 0 .6-.2.6-.6v-1.9c0-.5-.1-.6-.6-.6h-5.8c-.2 0-.3-.1-.3-.3v-3.5c0-.2.1-.3.3-.3h6.6c.5 0 .6-.2.6-.6v-2c0-.4-.2-.6-.6-.6h-9.7zm27 5.5c0 1.7-1.1 2.4-3.5 2.4h-2.2c-.3 0-.3-.1-.3-.3v-4.2c0-.2.1-.3.3-.3H65c2.4 0 3.6.7 3.6 2.4zm-8.8-5.5c-.4 0-.6.2-.6.6v15.6c0 .4.2.6.6.6H62c.4 0 .6-.2.6-.6v-4.9c0-.3 0-.3.3-.3h2.3c.3 0 .5.1.6.3l3.1 4.8c.4.5.6.7 1.2.7h2.4c.4 0 .5-.1.5-.3 0-.1 0-.3-.2-.4l-3.8-6c1.9-.8 3.1-2.4 3.1-4.8 0-3.5-2.3-5.4-6.9-5.4h-5.4v.1zm29.6 9.9c0 .1-.1.2-.3.2h-3.6c-.2 0-.3 0-.3-.2 0-.1 0-.1.1-.2l2-4.2 2 4.2c0 .1.1.1.1.2zm-2-10.3c-.4 0-.6.3-1.1 1.2l-7.4 15.1c-.1.2-.1.3-.1.4 0 .2.2.4.5.4h2.2c.6 0 .7-.1 1-.6l1.3-2.9c.1-.3.2-.3.5-.3h6.2c.3 0 .3 0 .5.3l1.3 2.9c.3.6.4.6 1 .6h2.2c.4 0 .5-.1.5-.3 0-.1 0-.2-.1-.4l-7.4-15.1c-.5-1-.7-1.3-1.1-1.3zm15.7.1c-.4 0-.5.3-.5.9v15.6c0 .4.2.6.6.6h2.2c.4 0 .6-.2.6-.6v-9l4.1 4.8c.4.5.6.6.9.6s.4-.1.9-.6l4.1-4.8v9c0 .4.2.6.6.6h2.2c.4 0 .6-.2.6-.6v-15.6c0-.6-.1-.9-.5-.9-.3 0-.5.2-1 .7l-6.7 7.7-6.8-7.7c-.8-.5-1-.7-1.3-.7zm25.3.3c-.4 0-.6.2-.6.6v15.6c0 .4.2.6.6.6h9.6c.4 0 .6-.2.6-.6v-2c0-.4-.2-.6-.6-.6h-6.6c-.2 0-.3-.1-.3-.3v-3.1c0-.3.1-.3.3-.3h5.7c.4 0 .6-.2.6-.6v-1.9c0-.4-.2-.6-.6-.6h-5.7c-.2 0-.3-.1-.3-.3v-3c0-.2.1-.3.3-.3h6.5c.4 0 .6-.2.6-.6v-2c0-.4-.2-.6-.6-.6h-9.5zm41.5 8.5c-.4 0-.6.2-.6.6v3.8c0 .3 0 .4-.3.5-.9.4-1.9.5-3.1.5-3 0-5.4-2.3-5.4-5.5 0-3.3 2.2-5.6 5.5-5.6 1.6 0 3 .5 4.5 1.3.2.1.3.1.4.1.2 0 .3-.1.5-.3l1-1.5c.1-.2.2-.3.2-.4 0-.2-.1-.3-.4-.5-1.6-1.2-3.8-1.9-6.1-1.9-5-.1-9 3.6-9 8.8-.1 5 3.9 8.6 8.7 8.5 2.2 0 4.4-.5 6.4-1.6.4-.2.5-.4.5-.8V117c0-.4-.2-.6-.6-.6h-2.2zm19.5 1.4c0 .1-.1.2-.3.2h-3.6c-.2 0-.3 0-.3-.2 0-.1 0-.1.1-.2l2-4.2 2 4.2c.1.1.1.1.1.2zm-2-10.3c-.4 0-.6.3-1.1 1.2l-7.4 15.1c-.1.2-.1.3-.1.4 0 .2.2.4.5.4h2.2c.6 0 .7-.1 1-.6l1.3-2.9c.1-.3.2-.3.5-.3h6.2c.3 0 .3 0 .5.3l1.3 2.9c.3.6.4.6 1 .6h2.2c.4 0 .5-.1.5-.3 0-.1 0-.2-.1-.4l-7.4-15.1c-.4-1-.7-1.3-1.1-1.3zm15.8.4c-.4 0-.6.2-.6.6v15.6c0 .4.2.6.6.6h9.7c.4 0 .6-.2.6-.6v-2c0-.4-.2-.6-.6-.6h-6.6c-.2 0-.3-.1-.3-.3v-12.8c0-.4-.2-.6-.6-.6h-2.2v.1zm17.8 0c-.4 0-.6.2-.6.6v15.6c0 .4.2.6.6.6h9.7c.4 0 .6-.2.6-.6v-2c0-.4-.2-.6-.6-.6h-6.6c-.2 0-.3-.1-.3-.3v-12.8c0-.4-.2-.6-.6-.6H221v.1zm17.8 0c-.4 0-.6.2-.6.6v15.6c0 .4.2.6.6.6h9.6c.4 0 .6-.2.6-.6v-2c0-.4-.2-.6-.6-.6h-6.6c-.2 0-.3-.1-.3-.3v-3.1c0-.3.1-.3.3-.3h5.7c.4 0 .6-.2.6-.6v-1.9c0-.4-.2-.6-.6-.6h-5.7c-.2 0-.3-.1-.3-.3v-3c0-.2.1-.3.3-.3h6.5c.4 0 .6-.2.6-.6v-2c0-.4-.2-.6-.6-.6h-9.5zm27.6 5.5c0 1.7-1.1 2.4-3.5 2.4h-2.2c-.3 0-.3-.1-.3-.3v-4.2c0-.2.1-.3.3-.3h2.1c2.4 0 3.6.7 3.6 2.4zm-8.8-5.5c-.4 0-.6.2-.6.6v15.6c0 .4.2.6.6.6h2.2c.4 0 .6-.2.6-.6v-4.9c0-.3 0-.3.3-.3h2.3c.3 0 .5.1.6.3l3.1 4.8c.4.5.6.7 1.2.7h2.4c.4 0 .5-.1.5-.3 0-.1 0-.3-.2-.4l-3.9-5.9c1.9-.8 3.1-2.4 3.1-4.8 0-3.5-2.3-5.4-6.9-5.4h-5.3zm17.7.6l6 10v5.6c0 .4.2.6.6.6h2.2c.4 0 .6-.2.6-.6v-5.7l5.9-9.9c.1-.1.1-.2.1-.4s-.1-.3-.5-.3h-2.4c-.6 0-.7.1-1.1.6l-3.8 6.7-3.8-6.7c-.3-.5-.5-.6-1.1-.6h-2.5c-.3 0-.5.1-.5.3.2.2.2.3.3.4z"/><path class="st0" d="M154.9 4.1c-8.1-1-7.8 6.8-6.2 9.6 1.6 2.7 4.9 3.9 9.8 5.4 4.4 1.4 6.9 2.1 6.9 6.9 0 2.9-3.5 4.9-3.5 4.9 7.7.3 8.4-7.1 6.4-11.4.9.7 2.7.9 3.4-.5 1.6-2.9-2.5-5.2-4.1-7.3-1.2-1.7-.9-3.1.3-3.5-1.6-2-4.3-.9-4.6.9-.4 2.6 1.4 4.5 1 4.9-.8.6-8.8.4-7.7-5.3-.4.5-1-2.8-1.7-4.6"/><path d="M157.6 20.6c2.3.5 6.2 1.6 6.4 4 0 1.6-1.1 2.7-2.7 3.2-2 .5-.8 3.3 1 3 4.1-.7 4.8-4.9 3.9-7.4-1.1-2.5-4.3-4.2-7.1-5-3.4-1.2-6-2.6-7.3-4.1-3.9-4.5-.9-10.3 3-10 0 0-1.1 1-.8 2.4.6 2.7 3.5 3.2 5.4 1.5 1.3-1.1 1.6-4-.3-6.4-3.2-3.9-13.8-.9-13.4 7.7-.1 6.7 8.2 10.3 11.9 11.1" fill="#eaaa1d"/><path class="st2" d="M82.1 65.5c1.1 2 1.9 4.5 1.9 7.1h7.1v-7.1h-9zm147.2-42.8v57.9l-27.4-57.9h-8.3v71.4h7.1V36.2l27.4 57.9h8.3V22.7zm-90.5 7.1v-7.1H95.9v50h42.9v-7.2h-35.7V51.2h28.6v-7.1h-28.6V29.8z"/><path class="st2" d="M72.1 54.9l-4.8 5.8c10.3 3.8 16.7 17.9 8.3 28.7-3.8 5-9.8 8.2-17.2 6.7-9.7-2-11.2-13.8-26-31.5-4.4-5.3-13.1-11.4-18.3-10.8C18.8 46 26.4 31.6 32.5 27c3.2-2.3 7.3-2.5 9.5-1.6 2.9 1.1 3.6 4.4.7 8.2l1.4 1 8.4-9.5c-3.6-6.1-8.8-7-13.6-6.1-5.3 1-10.3 6.9-13.9 12.4-4.5 6.8-12.2 19.5-15.4 27 9.6 4.1 18.6 16.5 22.6 23.1 6.5 10.6 16.3 18.5 27 18.5 9.4 0 15.2-4 19.7-10.3 7.4-10.7 3.4-28.2-6.8-34.8m109.5-32.2l-16.6 34-16.6-34h-8l21 43V94h7.2V65.8l21-43.1zM.7 22.7h7.1v71.4H.7z"/><path class="st2" d="M71.8 65.5h-9.2V22.7h-7.1v50h21c-.6-2.8-2.4-5.6-4.7-7.2m223-17.8c0-14.5-11.7-26.2-26.2-26.2s-26.2 11.7-26.2 26.2 11.7 26.2 26.2 26.2c1.7 0 3.4-.2 5-.5V66c-1.6.4-3.3.7-5 .7-10.5 0-19-8.5-19-19s8.5-19 19-19 19 8.5 19 19c0 3.5-1 6.9-2.7 9.7v10.7c6-4.8 9.9-12.2 9.9-20.4"/><path class="st2" d="M293.6 94.1h.1c19.6-.1 35.6-16.1 35.6-35.7 0-19.7-16-35.6-35.6-35.7h-11.9c3.4 1.8 6.3 4.2 8.7 7.1h3.1c15.8 0 28.6 12.8 28.6 28.6S309.4 87 293.6 87h-10.7V38.6c-1.7-2.7-4.2-4.9-7.1-6.3v61.8h17.8z"/></svg>