<svg xmlns="http://www.w3.org/2000/svg" viewBox="0 0 1133.9 212.6"><style>.st4{fill:#fff}</style><g id="Layer_1"><path class="st4" d="M469.6 154.9c18-15.6 29.3-38.6 29.3-64.2 0-46.9-38.1-85-85-85v34c28.1 0 51 22.9 51 51s-22.9 51-51 51v5.6l62.4 62.5h48.1l-54.8-54.9zm153 0c18-15.6 29.3-38.6 29.3-64.2 0-46.9-38.1-85-85-85v34c28.1 0 51 22.9 51 51s-22.9 51-51 51v5.6l62.4 62.5h48.1l-54.8-54.9zM822 209.8c-56.3 0-102-45.8-102-102 0-56.3 45.8-102 102-102 56.3 0 102 45.8 102 102 .1 56.2-45.7 102-102 102zm0-170.1c-37.5 0-68 30.5-68 68s30.5 68 68 68 68-30.5 68-68-30.4-68-68-68zM203.8 2.8l-96.3 96.3L11.3 2.8H5.7v207h34V79.4l67.8 67.8L175.7 79v130.8h34.1V2.8zm91 2.8h34v204.2h-34zm756.9 87.9v31.2h-17v-102h17c23.4 0 42.5 19.1 42.5 42.5 0 12.8-5.7 24.3-14.7 32.1l26.6 26.6c13.6-12.4 22.1-30.3 22.1-50.2 0-37.6-30.5-68-68-68s-68 30.5-68 68 30.5 68 68 68c11.5 0 22.3-2.9 31.8-7.9l-40.3-40.3z"/><path class="st4" d="M1051.7 90.7c14.1 0 25.5-11.4 25.5-25.5s-11.4-25.5-25.5-25.5v51z"/></g></svg>