<svg version="1.1" id="Layer_1" xmlns="http://www.w3.org/2000/svg" xmlns:xlink="http://www.w3.org/1999/xlink" x="0" y="0" viewBox="0 0 92 92" xml:space="preserve"><style>.st0{fill:none}.st1{fill:#fff}</style><pattern y="92" width="92" height="96" patternUnits="userSpaceOnUse" id="SVGID_1_" viewBox="37.2 -116.6 92 96" overflow="visible"><path class="st0" d="M37.2-116.6h92v96h-92z"/><path class="st0" d="M37.2-116.6h92v96h-92z"/><path class="st0" d="M37.2-116.6h92v96h-92z"/><path class="st1" d="M159.7-21.1c-.2-3.6-.8-6.9-1.2-8.8-.1-.8-.9-1.3-1.6-1.1-.8.1-1.3.9-1.1 1.6.4 1.9.9 5 1.2 8.5.2 3.4.1 7-.9 9.9-1.5 4.2-5.1 8-9.8 8.1-.7 0-1.4-.1-2.1-.2-1-.2-2-.6-2.9-1-3-1.5-3.9-4.2-3.1-7.4.6-2.7 2.1-5 3.1-7.5 1.5-3.8 1.9-7 1.4-9.6-.6-2.8-2.2-4.7-4.6-6-3.6-1.9-7.2-1.1-10.9 0-1.1.3-2.1.6-3.2.8l5-28.4c.1-.8-.4-1.5-1.1-1.6-.8-.1-1.5.4-1.6 1.2l-5.4 28.9c-2.7-.2-5.4-1.8-6.8-3.2-1-1-2.1-2.1-3.6-3h-.1c-2.1-1.1-4.4-1.6-6.5-1.2-2.2.4-4.1 1.7-5.3 4-2.3 4.3-.3 8.3 3.2 11 .6.5 1.4 1 2.2 1.5 3 1.8 6 5.3 5.3 9-.1.5-.2.9-.4 1.3-1.4 2.8-4.6 4.1-7.6 3.7-2.6-.3-5.5-1.9-6.7-4.1-.4-.7-1.3-.9-1.9-.5-.7.4-.9 1.3-.5 1.9 0 0 1.9 3.4 6.7 5 .7.2 1.4.4 2.1.5 4.2.6 8.6-1.3 10.5-5.2 0 0 .6-1.8.7-2 1-5-2.5-9.6-6.6-12-.7-.4-1.3-.8-1.9-1.3-2.4-1.8-4.1-4.4-2.4-7.5.8-1.5 2-2.3 3.3-2.5 1.4-.3 3.1.1 4.6.9 1.2.6 2.1 1.6 3 2.5 1.7 1.8 4.8 3.7 8.3 4l-4.3 24.4c-.1.8.4 1.5 1.1 1.6.8.1 1.5-.4 1.6-1.1l4.4-25c1.5-.2 3-.6 4.5-1 2.9-.8 6-1.7 8.8-.2 1.6.8 2.7 2.2 3.1 4.1.4 2 .1 4.7-1.2 8-1.1 2.7-2.6 5.1-3.3 7.9-1 4.5.4 8.4 4.6 10.6 1.1.6 2.3 1 3.6 1.3.9.2 1.8.3 2.7.3 5.8-.1 10.5-4.7 12.4-10 1.3-3.4 1.5-7.4 1.2-11.1zm-92 0c-.2-3.6-.8-6.9-1.2-8.8-.1-.8-.9-1.3-1.6-1.1-.8.1-1.3.9-1.1 1.6.4 1.9.9 5 1.2 8.5.2 3.4.1 7-.9 9.9-1.5 4.2-5.1 8-9.8 8.1-.7 0-1.4-.1-2.1-.2-1-.2-2-.6-2.9-1-3-1.5-3.9-4.2-3.1-7.4.6-2.7 2.1-5 3.1-7.5 1.5-3.8 1.9-7 1.4-9.6-.6-2.8-2.2-4.7-4.6-6-3.6-1.9-7.2-1.1-10.9 0-1.2.2-2.3.5-3.3.7l5-28.4c.1-.8-.4-1.5-1.1-1.6-.8-.1-1.5.4-1.6 1.2l-5.3 29c-2.7-.2-5.4-1.8-6.8-3.2-1-1-2.1-2.1-3.6-3h-.1c-2.1-1.1-4.4-1.6-6.5-1.2-2.2.4-4.1 1.7-5.3 4-2.3 4.3-.3 8.3 3.2 11 .6.5 1.4 1 2.2 1.5 3 1.8 6 5.3 5.3 9-.1.5-.2.9-.4 1.3-1.4 2.8-4.6 4.1-7.6 3.7-2.6-.3-5.5-1.9-6.7-4.1-.4-.7-1.3-.9-1.9-.5-.7.4-.9 1.3-.5 1.9 0 0 1.9 3.4 6.7 5 .6.3 1.3.5 2 .5 4.2.6 8.6-1.3 10.5-5.2 0 0 .6-1.8.7-2 1-5-2.5-9.6-6.6-12-.7-.4-1.3-.8-1.9-1.3-2.4-1.8-4.1-4.4-2.4-7.5.8-1.5 2-2.3 3.3-2.5 1.4-.3 3.1.1 4.6.9 1.2.6 2.1 1.6 3 2.5 1.7 1.8 4.8 3.7 8.3 4L24.1-6.4c-.1.8.4 1.5 1.1 1.6.8.1 1.5-.4 1.6-1.1l4.4-25c1.5-.2 3-.6 4.5-1 2.9-.8 6-1.7 8.8-.2 1.6.8 2.7 2.2 3.1 4.1.4 2 .1 4.7-1.2 8-1.1 2.7-2.6 5.1-3.3 7.9-1 4.5.4 8.4 4.6 10.6 1.1.6 2.3 1 3.6 1.3 1.1 0 2 .1 2.9.1 5.8-.1 10.5-4.7 12.4-10 1.2-3.3 1.4-7.3 1.1-11zm46-48c-.2-3.6-.8-6.9-1.2-8.8-.1-.8-.9-1.3-1.6-1.1-.8.1-1.3.9-1.1 1.6.4 1.9.9 5 1.2 8.5.2 3.4.1 7-.9 9.9-1.5 4.2-5.1 8-9.8 8.1-.7 0-1.4-.1-2.1-.2-1-.2-2-.6-2.9-1-3-1.5-3.9-4.2-3.1-7.4.6-2.7 2.1-5 3.1-7.5 1.5-3.8 1.9-7 1.4-9.6-.6-2.8-2.2-4.7-4.6-6-3.6-1.9-7.2-1.1-10.9 0-1.2.2-2.3.5-3.3.7l5-28.4c.1-.8-.4-1.5-1.1-1.6-.8-.1-1.5.4-1.6 1.2l-5.3 29c-2.7-.2-5.4-1.8-6.8-3.2-1-1-2.1-2.1-3.6-3h-.1c-2.1-1.1-4.4-1.6-6.5-1.2-2.2.4-4.1 1.7-5.3 4-2.3 4.3-.3 8.3 3.2 11 .6.5 1.4 1 2.2 1.5 3 1.8 6 5.3 5.3 9-.1.5-.2.9-.4 1.3-1.4 2.8-4.6 4.1-7.6 3.7-2.6-.3-5.5-1.9-6.7-4.1-.4-.7-1.3-.9-1.9-.5-.7.4-.9 1.3-.5 1.9 0 0 1.9 3.4 6.7 5 .7.2 1.4.4 2.1.5 4.2.6 8.6-1.3 10.5-5.2 0 0 .6-1.8.7-2 1-5-2.5-9.6-6.6-12-.7-.4-1.3-.8-1.9-1.3-2.4-1.8-4.1-4.4-2.4-7.5.8-1.5 2-2.3 3.3-2.5 1.4-.3 3.1.1 4.6.9 1.2.6 2.1 1.6 3 2.5 1.7 1.8 4.8 3.7 8.3 4l-4.3 24.4c-.1.8.4 1.5 1.1 1.6.8.1 1.5-.4 1.6-1.1l4.4-25c1.5-.2 3-.6 4.5-1 2.9-.8 6-1.7 8.8-.2 1.6.8 2.7 2.2 3.1 4.1.4 2 .1 4.7-1.2 8-1.1 2.7-2.6 5.1-3.3 7.9-1 4.5.4 8.4 4.6 10.6 1.1.6 2.3 1 3.6 1.3.9.2 1.8.3 2.7.3 5.8-.1 10.5-4.7 12.4-10 1.3-3.4 1.5-7.4 1.2-11.1zm46-48c-.2-3.6-.8-6.9-1.2-8.8-.1-.8-.9-1.3-1.6-1.1-.8.1-1.3.9-1.1 1.6.4 1.9.9 5 1.2 8.5.2 3.4.1 7-.9 9.9-1.5 4.2-5.1 8-9.8 8.1-.7 0-1.4-.1-2.1-.2-1-.2-2-.6-2.9-1-3-1.5-3.9-4.2-3.1-7.4.6-2.7 2.1-5 3.1-7.5 1.5-3.8 1.9-7 1.4-9.6-.6-2.8-2.2-4.7-4.6-6-3.6-1.9-7.2-1.1-10.9 0-1.1.3-2.1.6-3.2.8l5-28.4c.1-.8-.4-1.5-1.1-1.6-.8-.1-1.5.4-1.6 1.2l-5.1 29.1c-2.7-.2-5.4-1.8-6.8-3.2-1-1-2.1-2.1-3.6-3h-.1c-2.1-1.1-4.4-1.6-6.5-1.2-2.2.4-4.1 1.7-5.3 4-2.3 4.3-.3 8.3 3.2 11 .6.5 1.4 1 2.2 1.5 3 1.8 6 5.3 5.3 9-.1.5-.2.9-.4 1.3-1.4 2.8-4.6 4.1-7.6 3.7-2.6-.3-5.5-1.9-6.7-4.1-.4-.7-1.3-.9-1.9-.5-.7.4-.9 1.3-.5 1.9 0 0 1.9 3.4 6.7 5 .7.2 1.4.4 2.1.5 4.2.6 8.6-1.3 10.5-5.2 0 0 .6-1.8.7-2 1-5-2.5-9.6-6.6-12-.7-.4-1.3-.8-1.9-1.3-2.4-1.8-4.1-4.4-2.4-7.5.8-1.5 2-2.3 3.3-2.5 1.4-.3 3.1.1 4.6.9 1.2.6 2.1 1.6 3 2.5 1.7 1.8 4.8 3.7 8.3 4l-4.3 24.4c-.1.8.4 1.5 1.1 1.6.8.1 1.5-.4 1.6-1.1l4.4-25c1.5-.2 3-.6 4.5-1 2.9-.8 6-1.7 8.8-.2 1.6.8 2.7 2.2 3.1 4.1.4 2 .1 4.7-1.2 8-1.1 2.7-2.6 5.1-3.3 7.9-1 4.5.4 8.4 4.6 10.6 1.1.6 2.3 1 3.6 1.3.9.2 1.8.3 2.7.3 5.8-.1 10.5-4.7 12.4-10 1-3.6 1.2-7.6.9-11.3zm-92 0c-.2-3.6-.8-6.9-1.2-8.8-.1-.8-.9-1.3-1.6-1.1-.8.1-1.3.9-1.1 1.6.4 1.9.9 5 1.2 8.5.2 3.4.1 7-.9 9.9-1.5 4.2-5.1 8-9.8 8.1-.7 0-1.4-.1-2.1-.2-1-.2-2-.6-2.9-1-3-1.5-3.9-4.2-3.1-7.4.6-2.7 2.1-5 3.1-7.5 1.5-3.8 1.9-7 1.4-9.6-.6-2.8-2.2-4.7-4.6-6-3.6-1.9-7.2-1.1-10.9 0-1.1.3-2.1.6-3.2.8l5-28.4c.1-.8-.4-1.5-1.1-1.6-.8-.1-1.5.4-1.6 1.2l-5.4 28.9c-2.7-.2-5.4-1.8-6.8-3.2-1-1-2.1-2.1-3.6-3h-.1c-2.1-1.1-4.4-1.6-6.5-1.2-2.2.4-4.1 1.7-5.3 4-2.3 4.3-.3 8.3 3.2 11 .6.5 1.4 1 2.2 1.5 3 1.8 6 5.3 5.3 9-.1.5-.2.9-.4 1.3-1.4 2.8-4.6 4.1-7.6 3.7-2.6-.3-5.5-1.9-6.7-4.1-.4-.7-1.3-.9-1.9-.5-.7.4-.9 1.3-.5 1.9 0 0 1.9 3.4 6.7 5 .7.2 1.4.4 2.1.5 4.2.6 8.6-1.3 10.5-5.2 0 0 .6-1.8.7-2 1-5-2.5-9.6-6.6-12-.7-.4-1.3-.8-1.9-1.3-2.4-1.8-4.1-4.4-2.4-7.5.8-1.5 2-2.3 3.3-2.5 1.4-.3 3.1.1 4.6.9 1.2.6 2.1 1.6 3 2.5 1.7 1.8 4.8 3.7 8.3 4l-4.3 24.4c-.1.8.4 1.5 1.1 1.6.8.1 1.5-.4 1.6-1.1l4.4-25c1.5-.2 3-.6 4.5-1 2.9-.8 6-1.7 8.8-.2 1.6.8 2.7 2.2 3.1 4.1.4 2 .1 4.7-1.2 8-1.1 2.7-2.6 5.1-3.3 7.9-1 4.5.4 8.4 4.6 10.6 1.1.6 2.3 1 3.6 1.3.9.2 1.8.3 2.7.3 5.8-.1 10.5-4.7 12.4-10 1.3-3.4 1.5-7.4 1.2-11.1z"/></pattern><circle cx="46" cy="46" r="45" fill="#c7a05c"/><path class="st1" d="M79.8 56.7c-1 5.5-4.8 10.9-10.5 12-.9.2-1.8.2-2.8.2-1.3-.1-2.6-.3-3.7-.6-4.5-1.4-6.6-5-6.3-9.6.2-2.9 1.2-5.6 1.8-8.4.7-3.5.6-6.1-.2-8.1-.7-1.8-2-2.9-3.8-3.5-3.1-1-6 .4-8.7 1.7-1.4.7-2.8 1.3-4.2 1.8v25.4c0 .8-.6 1.4-1.4 1.4-.8 0-1.4-.6-1.4-1.4V42.9c-3.5.3-6.9-1.1-8.9-2.5-1-.7-2.1-1.5-3.4-1.9h-.1c-1.7-.6-3.4-.6-4.7-.1s-2.3 1.5-2.8 3.1c-1.1 3.2 1.1 5.5 3.7 6.9.6.3 1.3.6 2.1.9C29 51 33.2 54.9 33.1 60c0 .2-.3 2.1-.3 2.1-1.2 4.2-5.2 6.8-9.4 7-.7 0-1.4 0-2.1-.1-5-.7-7.5-3.8-7.5-3.8-.5-.6-.4-1.5.2-2 .6-.5 1.5-.4 2 .2 1.6 1.9 4.7 3 7.3 2.9 3-.1 5.9-1.9 6.8-4.9.1-.5.2-.9.2-1.4.1-3.9-3.5-6.7-6.7-8-.9-.3-1.7-.7-2.4-1.1-3.9-2.1-6.6-5.6-5.1-10.3.8-2.4 2.5-4 4.5-4.8 2-.7 4.3-.7 6.6 0h.1c1.7.6 2.9 1.4 4.1 2.3 1.6 1.2 4.6 2.2 7.2 2V10.5c0-.8.6-1.4 1.4-1.4.8 0 1.4.6 1.4 1.4v28.8c1-.4 2-.9 3-1.3 3.4-1.7 6.9-3.1 10.7-1.9 2.6.8 4.5 2.5 5.6 5.1 1 2.4 1.1 5.7.3 9.7-.6 2.7-1.6 5.2-1.8 7.9-.2 3.3 1.2 5.8 4.4 6.8 1 .3 2 .5 3.1.5.7 0 1.4 0 2.1-.2 4.6-.9 7.5-5.3 8.3-9.7.5-3 0-6.6-.8-9.9-.8-3.4-2-6.4-2.6-8.2-.3-.7.1-1.5.8-1.8.7-.3 1.5.1 1.8.8.7 1.8 1.9 5 2.7 8.5.9 3.6 1.4 7.6.8 11.1z"/><pattern id="SVGID_2_" xlink:href="#SVGID_1_" patternTransform="translate(-619.6 16580.535)"/><path d="M1149.3 46.6c1.1 0 1.5-1.4.2-1.4-1.1 0-1.5 1.4-.2 1.4z" fill="url(#SVGID_2_)"/></svg>